<svg width="237" height="24" viewBox="0 0 237 24" fill="none" xmlns="http://www.w3.org/2000/svg">
<path d="M10.5111 10.5026C14.0254 6.99166 19.2346 6.48451 22.1234 9.37761C25.0137 12.268 24.5099 17.4778 20.9974 20.9909C19.3101 22.6783 17.1843 23.7316 15.0111 23.9567C14.7218 23.9852 14.435 24.0006 14.1547 24.0007C12.2858 24.0007 10.6161 23.3448 9.38611 22.1149C7.97022 20.7005 7.31634 18.7023 7.54724 16.4899C7.77079 14.3165 8.82371 12.1901 10.5111 10.5026ZM21.9437 9.55828C20.9823 10.7177 20.2725 12.0409 19.0922 13.0114C17.8353 14.0448 16.4519 14.421 14.931 14.862C11.5938 15.831 9.94391 18.6528 9.56287 21.9362C10.6052 20.6838 11.3701 19.2796 12.6869 18.2731C13.8388 17.3942 15.0859 17.0459 16.4418 16.6755C19.8524 15.7394 21.5462 12.8941 21.9437 9.55828ZM1.87634 1.87761C4.76524 -1.01439 9.9752 -0.508815 13.4896 3.00261C14.4256 3.93863 15.1422 5.01644 15.6537 6.15496C13.9738 6.4445 12.3466 7.14641 10.9037 8.20086C10.3548 7.85589 9.75613 7.56051 9.06775 7.36101C7.54828 6.92001 6.16359 6.54447 4.90662 5.50945C3.7277 4.53894 3.01801 3.21431 2.05505 2.05632C2.45104 5.39237 4.1461 8.23847 7.55701 9.17449C8.13299 9.33199 8.68551 9.49323 9.224 9.68523C7.59804 11.3983 6.5262 13.4854 6.15271 15.6559C5.01435 15.1429 3.93626 14.4268 3.00037 13.4909C-0.507978 9.97785 -1.01404 4.76814 1.87634 1.87761Z" fill="#0E8784"/>
<path d="M174.169 8.47949C174.843 8.47952 175.391 8.54558 175.815 8.67773C176.238 8.80995 176.567 8.94201 176.801 9.07422C177.034 9.20628 177.211 9.27229 177.33 9.27246C177.461 9.27246 177.654 9.20969 177.909 9.08301C178.165 8.95629 178.423 8.83215 178.684 8.71094C178.944 8.58984 179.161 8.52937 179.335 8.5293C179.531 8.5293 179.688 8.59532 179.808 8.72754C179.927 8.85977 180.01 9.08571 180.053 9.40527L180.477 12.4463C180.553 12.887 180.563 13.226 180.509 13.4629C180.455 13.6997 180.313 13.8509 180.085 13.917C179.9 13.9611 179.705 13.9253 179.498 13.8096C179.292 13.6939 179.085 13.5092 178.879 13.2559C178.086 12.055 177.361 11.2068 176.703 10.7109C176.046 10.2151 175.348 9.9668 174.609 9.9668C174.076 9.96684 173.674 10.0831 173.403 10.3145C173.131 10.5457 172.995 10.8484 172.995 11.2227C172.995 11.4761 173.056 11.7132 173.175 11.9336C173.295 12.154 173.515 12.3609 173.835 12.5537C174.156 12.7465 174.609 12.9368 175.196 13.124C176.771 13.6088 177.993 14.1236 178.863 14.6689C179.732 15.2144 180.341 15.8407 180.689 16.5459C181.036 17.2509 181.21 18.0716 181.21 19.0078C181.21 20.5505 180.694 21.7686 179.661 22.6611C178.629 23.5536 177.146 24 175.212 24C174.56 24 174.019 23.9396 173.59 23.8184C173.161 23.6972 172.813 23.5753 172.547 23.4541C172.281 23.333 172.066 23.2725 171.904 23.2725C171.741 23.2725 171.526 23.3331 171.26 23.4541L170.461 23.8184C170.195 23.9396 169.969 24 169.784 24C169.622 24 169.47 23.945 169.328 23.835C169.187 23.7248 169.078 23.5043 169.002 23.1738L168.497 19.8848C168.4 19.466 168.383 19.1127 168.448 18.8262C168.514 18.54 168.66 18.3528 168.888 18.2646C169.127 18.1545 169.363 18.1489 169.597 18.248C169.831 18.3472 170.04 18.5239 170.225 18.7773C170.844 19.7358 171.404 20.4901 171.904 21.041C172.403 21.592 172.89 21.9811 173.363 22.207C173.835 22.4327 174.332 22.5459 174.854 22.5459C175.408 22.5458 175.82 22.4128 176.092 22.1484C176.364 21.884 176.499 21.5482 176.499 21.1406C176.499 20.8321 176.42 20.5513 176.263 20.2979C176.105 20.0444 175.818 19.8096 175.4 19.5947C174.981 19.3799 174.381 19.1683 173.599 18.959C172.393 18.6505 171.393 18.2477 170.6 17.752C169.807 17.2561 169.217 16.661 168.831 15.9668C168.446 15.2726 168.252 14.4627 168.252 13.5371C168.252 12.4904 168.511 11.5897 169.027 10.835C169.543 10.0801 170.249 9.49853 171.146 9.09082C172.042 8.6832 173.05 8.47949 174.169 8.47949ZM229.959 8.47949C230.633 8.47949 231.182 8.5455 231.606 8.67773C232.029 8.80986 232.358 8.94209 232.591 9.07422C232.825 9.20645 233.002 9.27246 233.121 9.27246C233.252 9.2724 233.444 9.20955 233.699 9.08301C233.955 8.95631 234.213 8.83213 234.474 8.71094C234.735 8.58973 234.952 8.5293 235.126 8.5293C235.322 8.52937 235.479 8.59538 235.599 8.72754C235.718 8.85981 235.8 9.08596 235.843 9.40527L236.267 12.4463C236.343 12.8871 236.353 13.226 236.299 13.4629C236.245 13.6997 236.103 13.8509 235.875 13.917C235.691 13.9609 235.496 13.9251 235.289 13.8096C235.083 13.6939 234.876 13.5093 234.669 13.2559C233.876 12.055 233.151 11.2068 232.493 10.7109C231.836 10.2152 231.138 9.96688 230.4 9.9668C229.867 9.9668 229.465 10.0831 229.194 10.3145C228.922 10.5458 228.786 10.8482 228.785 11.2227C228.785 11.476 228.846 11.7133 228.965 11.9336C229.085 12.154 229.305 12.3609 229.625 12.5537C229.946 12.7465 230.399 12.9368 230.986 13.124C232.561 13.6089 233.784 14.1235 234.654 14.6689C235.523 15.2144 236.131 15.8407 236.479 16.5459C236.826 17.2509 237 18.0715 237 19.0078C237 20.5505 236.484 21.7686 235.451 22.6611C234.419 23.5536 232.936 24 231.002 24C230.351 24 229.81 23.9395 229.381 23.8184C228.952 23.6971 228.603 23.5753 228.337 23.4541C228.071 23.333 227.856 23.2725 227.694 23.2725C227.531 23.2725 227.316 23.333 227.05 23.4541L226.251 23.8184C225.985 23.9395 225.759 24 225.574 24C225.412 23.9999 225.26 23.945 225.118 23.835C224.977 23.7248 224.868 23.5043 224.792 23.1738L224.287 19.8848C224.19 19.466 224.173 19.1127 224.239 18.8262C224.304 18.54 224.45 18.3528 224.678 18.2646C224.917 18.1545 225.153 18.149 225.387 18.248C225.621 18.3472 225.83 18.5239 226.015 18.7773C226.634 19.7357 227.194 20.4901 227.694 21.041C228.193 21.592 228.68 21.9811 229.153 22.207C229.625 22.4328 230.122 22.5459 230.644 22.5459C231.198 22.5459 231.61 22.4129 231.882 22.1484C232.154 21.884 232.29 21.5483 232.29 21.1406C232.29 20.8322 232.211 20.5512 232.054 20.2979C231.896 20.0444 231.608 19.8096 231.19 19.5947C230.771 19.3799 230.171 19.1683 229.389 18.959C228.183 18.6504 227.183 18.2478 226.39 17.752C225.597 17.2561 225.007 16.661 224.621 15.9668C224.236 15.2726 224.043 14.4627 224.043 13.5371C224.043 12.4905 224.301 11.5897 224.817 10.835C225.333 10.0801 226.039 9.49853 226.936 9.09082C227.832 8.68311 228.84 8.47949 229.959 8.47949ZM41.8401 8.47949C43.1765 8.47951 44.3038 8.67755 45.2219 9.07422C46.14 9.47087 46.8409 10.008 47.3245 10.6855C47.808 11.3632 48.05 12.1215 48.05 12.959C48.05 13.8403 47.7973 14.5319 47.2922 15.0332C46.787 15.5346 46.099 15.7852 45.2297 15.7852C44.3389 15.7851 43.6622 15.5289 43.2004 15.0166C42.7388 14.5042 42.5081 13.8016 42.5081 12.9092V11.8516C42.5081 11.3116 42.4107 10.9034 42.2151 10.6279C42.0195 10.3524 41.7416 10.2148 41.3831 10.2148C41.0247 10.215 40.7011 10.3614 40.4133 10.6533C40.1256 10.9453 39.9028 11.3831 39.7454 11.9668C39.5878 12.5507 39.5091 13.2725 39.509 14.1318C39.509 15.3658 39.6911 16.4019 40.0549 17.2393C40.4189 18.0766 40.916 18.7053 41.5461 19.124C42.1762 19.5427 42.8936 19.7519 43.6975 19.752C44.5016 19.752 45.1757 19.6334 45.719 19.3965C46.2622 19.1596 46.6805 18.7602 46.9739 18.1982C47.1368 18.044 47.2643 17.9445 47.3567 17.9004C47.449 17.8563 47.5393 17.835 47.6262 17.835C47.7347 17.846 47.8242 17.8986 47.8948 17.9922C47.9653 18.0858 47.9955 18.2315 47.9846 18.4297C47.8977 19.5095 47.5663 20.4627 46.9905 21.2891C46.4146 22.1155 45.6373 22.7654 44.6594 23.2393C43.6815 23.7131 42.5405 23.9502 41.2366 23.9502C39.8567 23.9502 38.6205 23.6582 37.5286 23.0742C36.4367 22.4902 35.5757 21.6444 34.9456 20.5371C34.3154 19.4297 34.0003 18.0827 34.0002 16.4961C34.0002 14.9644 34.3292 13.5953 34.9866 12.3887C35.6439 11.1821 36.5592 10.229 37.7327 9.5293C38.9062 8.82957 40.2754 8.47949 41.8401 8.47949ZM96.718 8.47949C98.1304 8.47955 99.3471 8.75804 100.368 9.31445C101.39 9.87089 102.175 10.6251 102.724 11.5781C103.273 12.5313 103.547 13.5927 103.547 14.7607C103.547 15.2674 103.41 15.6671 103.139 15.959L103.074 16.0234C102.807 16.2722 102.437 16.3964 101.966 16.3965H94.5149L94.5305 16.4727C94.7282 17.3801 95.0665 18.1075 95.5442 18.6533C96.3591 19.5842 97.4459 20.0498 98.804 20.0498C99.6731 20.0498 100.441 19.8507 101.11 19.4541C101.778 19.0574 102.226 18.5069 102.454 17.8018C102.585 17.6586 102.702 17.5623 102.805 17.5127C102.908 17.4631 102.998 17.4385 103.074 17.4385C103.183 17.4386 103.275 17.4823 103.351 17.5703C103.427 17.6585 103.465 17.8072 103.465 18.0166C103.465 19.0964 103.172 20.0854 102.585 20.9834C101.998 21.8814 101.178 22.6007 100.124 23.1406C99.0703 23.6806 97.8529 23.9502 96.4729 23.9502C94.9518 23.9502 93.6149 23.6336 92.4631 23C91.3115 22.3664 90.4123 21.4792 89.7659 20.3389C89.1194 19.1984 88.7961 17.8785 88.7961 16.3799C88.7962 14.8042 89.1089 13.4238 89.7336 12.2393C90.3584 11.0549 91.2633 10.1318 92.4475 9.4707C93.6318 8.80967 95.0557 8.47949 96.718 8.47949ZM112.299 8.47949C113.712 8.47949 114.929 8.75798 115.95 9.31445C116.971 9.87083 117.756 10.6253 118.305 11.5781C118.854 12.5313 119.128 13.5927 119.128 14.7607C119.128 15.2674 118.993 15.6671 118.721 15.959L118.656 16.0234C118.388 16.2721 118.018 16.3965 117.547 16.3965H110.097L110.113 16.4727C110.31 17.3801 110.648 18.1075 111.125 18.6533C111.94 19.5843 113.027 20.0497 114.385 20.0498C115.254 20.0498 116.023 19.8508 116.692 19.4541C117.36 19.0574 117.808 18.5069 118.036 17.8018C118.167 17.6585 118.284 17.5623 118.387 17.5127C118.49 17.4632 118.58 17.4385 118.656 17.4385C118.764 17.4385 118.857 17.4822 118.933 17.5703C119.009 17.6585 119.047 17.8074 119.047 18.0166C119.047 19.0965 118.753 20.0853 118.166 20.9834C117.58 21.8814 116.759 22.6007 115.705 23.1406C114.651 23.6805 113.435 23.9502 112.055 23.9502C110.534 23.9502 109.197 23.6336 108.045 23C106.893 22.3664 105.994 21.4793 105.348 20.3389C104.701 19.1984 104.378 17.8785 104.378 16.3799C104.378 14.8042 104.69 13.4238 105.315 12.2393C105.939 11.0548 106.844 10.1318 108.029 9.4707C109.213 8.80955 110.637 8.47949 112.299 8.47949ZM159.793 8.47949C161.89 8.47949 163.431 8.87884 164.414 9.67773C165.398 10.4766 165.889 11.6033 165.889 13.0576V20.3633C165.889 20.5726 165.935 20.7414 166.028 20.8682C166.12 20.9947 166.259 21.0576 166.444 21.0576C166.574 21.0576 166.696 21.0193 166.81 20.9424C166.924 20.8653 167.008 20.7275 167.063 20.5293C167.095 20.4852 167.134 20.4517 167.177 20.4297C167.22 20.4077 167.269 20.3965 167.323 20.3965C167.443 20.3965 167.538 20.4516 167.609 20.5615C167.679 20.6717 167.714 20.8103 167.714 20.9756C167.714 21.3612 167.57 21.7854 167.282 22.248C166.995 22.7107 166.558 23.1103 165.971 23.4463C165.384 23.7824 164.634 23.9502 163.721 23.9502C162.624 23.9501 161.774 23.7161 161.171 23.248L161.068 23.1641C160.734 22.8812 160.504 22.5612 160.379 22.2041L160.355 22.1299L160.332 22.1582C159.935 22.6489 159.418 23.045 158.782 23.3467C157.935 23.7488 157.023 23.9501 156.045 23.9502C154.741 23.9502 153.695 23.6033 152.907 22.9092C152.12 22.215 151.726 21.3279 151.726 20.248C151.726 18.8266 152.299 17.7192 153.446 16.9258C154.592 16.1325 156.333 15.7354 158.669 15.7354L158.845 15.7373C159.19 15.7445 159.493 15.7736 159.755 15.8242L159.842 15.8428V11.0244C159.842 10.6389 159.753 10.3332 159.573 10.1074C159.394 9.88153 159.152 9.76855 158.848 9.76855C158.566 9.76859 158.329 9.8537 158.139 10.0244C157.949 10.1952 157.854 10.4356 157.854 10.7441V12C157.854 12.8154 157.583 13.4798 157.039 13.9922C156.496 14.5046 155.751 14.7607 154.806 14.7607C154.035 14.7607 153.445 14.5761 153.037 14.207C152.63 13.8379 152.426 13.3 152.426 12.5947C152.426 11.9338 152.701 11.2867 153.249 10.6533C153.798 10.0198 154.618 9.49852 155.71 9.09082C156.802 8.68312 158.163 8.47951 159.793 8.47949ZM188.267 4.89258C188.517 4.89258 188.713 4.9698 188.854 5.12402L188.899 5.17871C189.01 5.33325 189.066 5.55781 189.066 5.85156V8.80957H192.472C192.711 8.80957 192.896 8.86211 193.027 8.9668C193.157 9.07141 193.222 9.23397 193.222 9.4541C193.222 9.76263 193.086 10.0277 192.815 10.248L192.754 10.2939C192.48 10.4839 192.066 10.5781 191.511 10.5781H189.066V18.1152C189.066 18.9417 189.205 19.5535 189.482 19.9502C189.759 20.3469 190.163 20.5459 190.696 20.5459C190.924 20.5459 191.136 20.4957 191.331 20.3965C191.527 20.2973 191.703 20.1676 191.861 20.0078C192.018 19.848 192.168 19.6691 192.309 19.4707C192.45 19.2724 192.587 19.0743 192.717 18.876C192.826 18.832 192.921 18.851 193.002 18.9336C193.084 19.0162 193.119 19.185 193.108 19.4385C193.032 20.3307 192.785 21.1155 192.366 21.793C191.948 22.4706 191.38 22.9997 190.663 23.3799C189.946 23.76 189.098 23.9502 188.12 23.9502C186.469 23.9502 185.228 23.5483 184.397 22.7441C183.566 21.9398 183.15 20.6723 183.15 18.9424V11.4707C183.15 11.2396 183.128 11.0635 183.084 10.9424C183.041 10.8212 182.932 10.7217 182.758 10.6445L181.992 10.3965C181.808 10.3083 181.688 10.2009 181.634 10.0742C181.58 9.94754 181.552 9.79075 181.552 9.60352C181.552 9.37211 181.634 9.18196 181.797 9.0332C181.96 8.88457 182.161 8.80958 182.4 8.80957H183.198C183.296 8.80953 183.399 8.77142 183.508 8.69434C183.617 8.6172 183.764 8.46285 183.948 8.23145L186.963 5.70215C187.18 5.43776 187.398 5.23733 187.615 5.09961C187.833 4.96195 188.05 4.89265 188.267 4.89258ZM201.583 8.47949C202.996 8.4795 204.212 8.75806 205.234 9.31445C206.255 9.87086 207.04 10.6251 207.589 11.5781C208.138 12.5313 208.412 13.5927 208.412 14.7607C208.412 15.2674 208.277 15.6671 208.005 15.959L207.94 16.0234C207.672 16.2721 207.303 16.3965 206.831 16.3965H199.381L199.397 16.4727C199.594 17.3801 199.932 18.1075 200.409 18.6533C201.224 19.5843 202.311 20.0497 203.669 20.0498C204.538 20.0498 205.308 19.8508 205.976 19.4541C206.644 19.0574 207.092 18.5069 207.321 17.8018C207.451 17.6585 207.568 17.5623 207.671 17.5127C207.774 17.4632 207.864 17.4385 207.94 17.4385C208.048 17.4385 208.141 17.4822 208.217 17.5703C208.293 17.6585 208.331 17.8074 208.331 18.0166C208.331 19.0965 208.037 20.0853 207.45 20.9834C206.864 21.8814 206.043 22.6007 204.99 23.1406C203.936 23.6805 202.719 23.9501 201.339 23.9502C199.818 23.9502 198.481 23.6336 197.329 23C196.178 22.3664 195.279 21.4793 194.632 20.3389C193.986 19.1984 193.662 17.8785 193.662 16.3799C193.662 14.8042 193.974 13.4238 194.599 12.2393C195.224 11.0548 196.128 10.1318 197.313 9.4707C198.497 8.80955 199.921 8.47949 201.583 8.47949ZM57.2092 8.47949C58.7955 8.47949 60.1812 8.80967 61.3655 9.4707C62.5498 10.1319 63.4741 11.0468 64.137 12.2148C64.7997 13.3828 65.1311 14.733 65.1311 16.2646C65.1311 17.7191 64.7859 19.0224 64.0959 20.1738C63.406 21.3253 62.4492 22.237 61.2268 22.9092C60.0045 23.5812 58.5839 23.917 56.9651 23.917C55.3895 23.917 54.0065 23.5892 52.8167 22.9336C51.6271 22.278 50.7011 21.3717 50.0383 20.2148C49.3755 19.0578 49.0442 17.7189 49.0442 16.1982C49.0442 14.7437 49.3918 13.435 50.0872 12.2725C50.7826 11.11 51.7442 10.1871 52.9719 9.50391C54.1996 8.8208 55.6121 8.47954 57.2092 8.47949ZM142.875 8.47949C144.462 8.47949 145.847 8.80962 147.031 9.4707C148.216 10.1318 149.139 11.0469 149.802 12.2148C150.465 13.3829 150.796 14.733 150.796 16.2646C150.796 17.7191 150.452 19.0224 149.762 20.1738C149.072 21.3253 148.115 22.237 146.893 22.9092C145.671 23.5813 144.25 23.917 142.631 23.917C141.056 23.917 139.672 23.5892 138.483 22.9336C137.293 22.278 136.367 21.3717 135.704 20.2148C135.042 19.0578 134.71 17.7189 134.71 16.1982C134.71 14.7437 135.058 13.435 135.753 12.2725C136.449 11.1101 137.41 10.187 138.638 9.50391C139.866 8.82082 141.278 8.47951 142.875 8.47949ZM72.1389 0C73.3016 0 74.2664 0.186868 75.0325 0.561523C75.7983 0.936101 76.3709 1.43522 76.7512 2.05762C77.1315 2.68021 77.3225 3.36132 77.3225 4.09961C77.3224 4.96983 77.0965 5.62243 76.6458 6.05762C76.1949 6.49278 75.6165 6.71084 74.9104 6.71094C74.1281 6.71094 73.4969 6.45708 73.0188 5.9502C72.5409 5.44335 72.302 4.77087 72.302 3.93359V2.46289C72.302 2.07722 72.2256 1.79315 72.0735 1.61133C71.9214 1.42979 71.6881 1.3389 71.3733 1.33887C70.9713 1.33887 70.6667 1.47647 70.4602 1.75195C70.2538 2.02743 70.1506 2.42448 70.1506 2.94238C70.1507 3.47122 70.2734 3.96695 70.5178 4.42969C70.7623 4.89245 71.0636 5.32537 71.4221 5.72754C71.7806 6.12967 72.1388 6.51568 72.4973 6.88477C72.8559 7.2539 73.1581 7.61747 73.4026 7.97559L73.4719 8.08301C73.6038 8.29745 73.6916 8.51117 73.7356 8.72363L73.7512 8.80957H76.1653C76.4149 8.80962 76.6077 8.86224 76.7434 8.9668C76.8791 9.07141 76.9474 9.23394 76.9475 9.4541C76.9475 9.78467 76.8062 10.0553 76.5237 10.2646C76.2412 10.474 75.7952 10.5781 75.1868 10.5781H74.0295V20.876C74.0295 21.1845 74.0759 21.4216 74.1682 21.5869C74.2606 21.7522 74.41 21.8517 74.6165 21.8848L76.0178 22.0996C76.2677 22.1327 76.453 22.2121 76.5725 22.3389C76.692 22.4656 76.7512 22.6391 76.7512 22.8594C76.7512 23.3663 76.4963 23.6201 75.9856 23.6201H66.9885C66.7714 23.6201 66.595 23.5563 66.4592 23.4297C66.3234 23.303 66.2551 23.124 66.2551 22.8926C66.2551 22.6942 66.3014 22.5343 66.3938 22.4131C66.4861 22.2919 66.63 22.1924 66.8254 22.1152L67.5266 21.9004C67.7003 21.8453 67.8361 21.741 67.9338 21.5869C68.0316 21.4327 68.0803 21.2122 68.0803 20.9258V11.3721C68.0803 11.2179 68.043 11.0881 67.967 10.9834C67.891 10.8788 67.7495 10.7825 67.5432 10.6943L66.5979 10.3799C66.3482 10.2588 66.1685 10.1298 66.0598 9.99219C65.9512 9.85445 65.8967 9.68565 65.8967 9.4873C65.8968 9.28909 65.9651 9.12666 66.1008 9L66.1536 8.95508C66.2836 8.85813 66.4534 8.80964 66.6624 8.80957H68.093L68.0823 8.71289C68.0517 8.51992 67.9749 8.33474 67.8528 8.15723C67.6898 7.92031 67.5045 7.65299 67.2981 7.35547C67.0917 7.05797 66.9074 6.70224 66.7444 6.28906C66.5815 5.87596 66.5003 5.36656 66.5002 4.76074C66.5002 3.31722 66.9891 2.16287 67.967 1.29785C68.9449 0.432896 70.3353 3.64344e-05 72.1389 0ZM83.5159 0C84.6782 2.67312e-05 85.6425 0.187003 86.4084 0.561523C87.1744 0.936147 87.7479 1.4351 88.1282 2.05762C88.5085 2.68021 88.6985 3.36132 88.6985 4.09961C88.6984 4.96991 88.4726 5.62243 88.0217 6.05762C87.5708 6.4928 86.9926 6.71094 86.2864 6.71094C85.504 6.71093 84.8738 6.45708 84.3958 5.9502C83.9177 5.44332 83.679 4.771 83.679 3.93359V2.46289C83.679 2.07722 83.6026 1.79315 83.4504 1.61133C83.2983 1.4296 83.0643 1.33887 82.7493 1.33887C82.3475 1.33894 82.0436 1.47669 81.8372 1.75195C81.6307 2.02744 81.5276 2.42448 81.5276 2.94238C81.5276 3.47119 81.6494 3.96697 81.8938 4.42969C82.1383 4.89248 82.4395 5.32535 82.7981 5.72754C83.1567 6.12974 83.5157 6.51562 83.8743 6.88477C84.2327 7.25382 84.5341 7.61755 84.7786 7.97559L84.8489 8.08301C84.9807 8.29738 85.0686 8.51124 85.1125 8.72363L85.1272 8.80957H87.5413C87.7912 8.80957 87.9845 8.86211 88.1204 8.9668C88.256 9.07141 88.3234 9.23403 88.3235 9.4541C88.3235 9.78468 88.1822 10.0553 87.8997 10.2646C87.6172 10.4738 87.1719 10.5781 86.5637 10.5781H85.4065V20.876C85.4065 21.1845 85.4528 21.4216 85.5452 21.5869C85.6375 21.752 85.7871 21.8517 85.9934 21.8848L87.3948 22.0996C87.6445 22.1327 87.829 22.2123 87.9485 22.3389C88.068 22.4656 88.1282 22.6391 88.1282 22.8594C88.1282 23.3661 87.8729 23.62 87.3625 23.6201H78.3655C78.1482 23.6201 77.971 23.5564 77.8352 23.4297C77.6995 23.303 77.6321 23.1239 77.6321 22.8926C77.6321 22.6942 77.6784 22.5343 77.7708 22.4131C77.8631 22.292 78.007 22.1923 78.2024 22.1152L78.9036 21.9004C79.0772 21.8452 79.2131 21.741 79.3108 21.5869C79.4086 21.4327 79.4573 21.2122 79.4573 20.9258V11.3721C79.4573 11.2178 79.4191 11.0881 79.343 10.9834C79.2669 10.8788 79.1256 10.7825 78.9192 10.6943L77.9739 10.3799C77.7241 10.2587 77.5444 10.1299 77.4358 9.99219C77.3271 9.85445 77.2737 9.68565 77.2737 9.4873C77.2738 9.28913 77.3411 9.12665 77.4768 9L77.5305 8.95508C77.6606 8.85821 77.8303 8.80957 78.0393 8.80957H79.469L79.4583 8.71289C79.4276 8.51986 79.3509 8.33478 79.2288 8.15723C79.0658 7.92035 78.8815 7.65294 78.675 7.35547C78.4686 7.05795 78.2833 6.70229 78.1204 6.28906C77.9575 5.87599 77.8763 5.36647 77.8762 4.76074C77.8762 3.31734 78.3653 2.16284 79.343 1.29785C80.3209 0.432838 81.7122 0 83.5159 0ZM131.19 8.47949C132.124 8.47959 132.841 8.79388 133.341 9.42188C133.841 10.05 134.09 11.0033 134.09 12.2812C134.09 13.5483 133.829 14.4792 133.308 15.0742C132.786 15.6692 132.113 15.9667 131.287 15.9668C130.483 15.9668 129.888 15.7632 129.502 15.3555C129.117 14.9478 128.913 14.3693 128.891 13.6201L128.875 12.959C128.864 12.7055 128.815 12.5065 128.728 12.3633C128.641 12.2203 128.499 12.1484 128.304 12.1484C128.109 12.1486 127.938 12.2507 127.791 12.4541C127.645 12.658 127.533 12.9699 127.457 13.3887C127.381 13.8074 127.343 14.3421 127.343 14.9922V20.8096C127.343 21.1181 127.392 21.3641 127.49 21.5459C127.587 21.7275 127.739 21.8407 127.946 21.8848L129.168 22.1318C129.396 22.1649 129.56 22.2509 129.657 22.3887C129.755 22.5263 129.804 22.6888 129.804 22.876C129.804 23.0964 129.736 23.2753 129.6 23.4131C129.464 23.5508 129.266 23.6201 129.005 23.6201H120.856C120.617 23.6201 120.429 23.5541 120.293 23.4219C120.157 23.2896 120.09 23.1074 120.09 22.876C120.09 22.6998 120.131 22.5541 120.212 22.4385C120.294 22.3228 120.405 22.2144 120.546 22.1152L120.921 21.9668C121.062 21.9008 121.16 21.7963 121.214 21.6533C121.268 21.5101 121.296 21.2728 121.296 20.9424V12.5459C121.296 12.2817 121.266 12.0913 121.206 11.9756C121.147 11.8599 121.046 11.7683 120.905 11.7021L120.481 11.6533C120.329 11.5652 120.217 11.4712 120.147 11.3721C120.076 11.273 120.041 11.1463 120.041 10.9922C120.041 10.8159 120.096 10.6582 120.204 10.5205C120.313 10.3829 120.497 10.2641 120.758 10.165L125.387 8.82617C125.659 8.71601 125.887 8.6388 126.072 8.59473C126.256 8.55067 126.414 8.5293 126.544 8.5293C126.729 8.52931 126.868 8.59532 126.96 8.72754L126.99 8.77539C127.066 8.91362 127.118 9.13495 127.147 9.43848L127.271 12.0068L127.299 11.9111C127.354 11.7323 127.416 11.5608 127.482 11.3965C127.878 10.4104 128.402 9.67753 129.054 9.19824C129.706 8.7189 130.418 8.47949 131.19 8.47949ZM220.473 8.47949C221.407 8.47949 222.125 8.79378 222.625 9.42188C223.125 10.05 223.374 11.0033 223.374 12.2812C223.374 13.5483 223.114 14.4792 222.592 15.0742C222.071 15.6692 221.397 15.9667 220.572 15.9668C219.767 15.9668 219.172 15.7632 218.786 15.3555C218.401 14.9478 218.197 14.3693 218.175 13.6201L218.159 12.959C218.149 12.7055 218.099 12.5065 218.012 12.3633C217.925 12.2203 217.784 12.1484 217.588 12.1484C217.393 12.1486 217.222 12.2507 217.075 12.4541C216.929 12.658 216.818 12.9699 216.741 13.3887C216.665 13.8074 216.627 14.3421 216.627 14.9922V20.8096C216.627 21.1181 216.676 21.3641 216.774 21.5459C216.871 21.7275 217.023 21.8407 217.23 21.8848L218.452 22.1318C218.681 22.1649 218.844 22.2509 218.942 22.3887C219.039 22.5263 219.088 22.6888 219.088 22.876C219.088 23.0964 219.02 23.2753 218.884 23.4131C218.748 23.5508 218.55 23.6201 218.289 23.6201H210.14C209.901 23.6201 209.713 23.5541 209.577 23.4219C209.442 23.2896 209.374 23.1074 209.374 22.876C209.374 22.6998 209.415 22.5541 209.496 22.4385C209.578 22.3228 209.689 22.2144 209.83 22.1152L210.205 21.9668C210.346 21.9008 210.444 21.7963 210.498 21.6533C210.553 21.5101 210.58 21.2728 210.58 20.9424V12.5459C210.58 12.2817 210.55 12.0913 210.49 11.9756C210.431 11.8599 210.33 11.7683 210.189 11.7021L209.765 11.6533C209.613 11.5652 209.502 11.4712 209.431 11.3721C209.36 11.273 209.326 11.1463 209.325 10.9922C209.325 10.8159 209.38 10.6582 209.489 10.5205C209.597 10.3829 209.782 10.2641 210.042 10.165L214.671 8.82617C214.943 8.71602 215.171 8.63879 215.356 8.59473C215.54 8.55068 215.698 8.5293 215.828 8.5293C216.013 8.52932 216.151 8.59536 216.243 8.72754L216.274 8.77539C216.35 8.91362 216.402 9.13496 216.431 9.43848L216.555 12.0068L216.583 11.9111C216.638 11.7323 216.7 11.5608 216.766 11.3965C217.162 10.4104 217.686 9.67753 218.338 9.19824C218.99 8.719 219.702 8.47959 220.473 8.47949ZM56.0032 10.2148C55.6666 10.292 55.4171 10.562 55.2542 11.0244C55.0912 11.4872 55.0253 12.1707 55.0579 13.0742C55.0905 13.9778 55.2318 15.1298 55.4817 16.5293C55.7424 17.9284 56.0171 19.0576 56.3049 19.917C56.5929 20.7765 56.8975 21.3883 57.218 21.752C57.5384 22.1154 57.8667 22.2642 58.2034 22.1982C58.5401 22.1321 58.7928 21.8678 58.9612 21.4053C59.1296 20.9425 59.2003 20.2558 59.1731 19.3467C59.1459 18.4377 59.0021 17.2838 58.7415 15.8848C58.4807 14.4854 58.2038 13.3556 57.9104 12.4961C57.617 11.6366 57.31 11.0248 56.9895 10.6611C56.669 10.2975 56.34 10.1487 56.0032 10.2148ZM141.669 10.2148C141.332 10.292 141.082 10.5618 140.919 11.0244C140.756 11.4872 140.691 12.1707 140.724 13.0742C140.756 13.9778 140.898 15.1298 141.148 16.5293C141.408 17.9284 141.683 19.0576 141.971 19.917C142.259 20.7763 142.563 21.3883 142.883 21.752C143.204 22.1155 143.533 22.2643 143.869 22.1982C144.206 22.1321 144.459 21.8679 144.627 21.4053C144.796 20.9425 144.866 20.2558 144.839 19.3467C144.812 18.4378 144.668 17.2838 144.407 15.8848C144.147 14.4855 143.87 13.3556 143.576 12.4961C143.283 11.6366 142.976 11.0248 142.656 10.6611C142.335 10.2975 142.006 10.1487 141.669 10.2148ZM159.109 16.8428C158.685 16.8428 158.345 17.0419 158.09 17.4385C157.835 17.8352 157.707 18.4193 157.707 19.1904C157.707 19.9285 157.841 20.4769 158.107 20.835C158.373 21.1928 158.723 21.372 159.157 21.3721L159.251 21.3691C159.437 21.3562 159.616 21.3042 159.789 21.2139L159.842 21.1836V16.9424L159.761 16.917C159.576 16.8674 159.359 16.8428 159.109 16.8428ZM95.9348 10.1982C95.6417 10.1984 95.3759 10.3226 95.137 10.5703C94.8979 10.8182 94.7022 11.2399 94.55 11.835C94.398 12.43 94.3215 13.2455 94.3215 14.2812C94.3215 14.5546 94.3295 14.8179 94.345 15.0713L94.3469 15.1074H96.8801C97.293 15.1074 97.5002 14.8759 97.5002 14.4131C97.5002 12.9038 97.3344 11.824 97.0032 11.1738C96.6718 10.5237 96.3151 10.1982 95.9348 10.1982ZM111.517 10.1982C111.223 10.1982 110.957 10.3224 110.718 10.5703C110.479 10.8183 110.283 11.24 110.131 11.835C109.979 12.43 109.904 13.2456 109.904 14.2812C109.904 14.5546 109.911 14.8179 109.926 15.0713L109.929 15.1074H112.462C112.875 15.1074 113.081 14.8759 113.081 14.4131C113.081 12.9037 112.916 11.824 112.584 11.1738C112.253 10.5237 111.897 10.1983 111.517 10.1982ZM200.801 10.1982C200.508 10.1982 200.241 10.3224 200.002 10.5703C199.763 10.8183 199.567 11.24 199.415 11.835C199.263 12.43 199.188 13.2456 199.188 14.2812C199.188 14.5546 199.195 14.8179 199.21 15.0713L199.213 15.1074H201.746C202.159 15.1074 202.365 14.8758 202.365 14.4131C202.365 12.9037 202.2 11.824 201.868 11.1738C201.537 10.5238 201.181 10.1983 200.801 10.1982Z" fill="#333D4B"/>
</svg>
